<svg version="1.2" xmlns="http://www.w3.org/2000/svg" viewBox="0 0 1500 500" width="1500" height="500">
	<title>hugo-logo-wide</title>
	<style>
		.s0 { fill: #ebb951;stroke: #fcd804;stroke-width: 27 } 
		.s1 { fill: #33ba91;stroke: #00a88a;stroke-width: 27 } 
		.s2 { fill: #0594cb;stroke: #0083c0;stroke-width: 27 } 
		.s3 { fill: #ff4088;stroke: #c9177e;stroke-width: 27 } 
		.s4 { fill: #ffffff } 
	</style>
	<path fill-rule="evenodd" class="s0" d="m1348.2 78.7l112.3 64.3c3.2 1.9 6.3 4.2 8.9 6.8 2.7 2.7 5 5.7 6.9 9 1.9 3.2 3.3 6.7 4.3 10.4 1 3.6 1.5 7.4 1.5 11.1v142.3c0 3.5-0.5 7.1-1.4 10.5-1 3.4-2.3 6.7-4.2 9.8-1.8 3.1-4 5.9-6.5 8.4-2.6 2.4-5.5 4.6-8.6 6.3l-120.9 66.6c-3.1 1.7-6.5 3-10 3.9-3.5 0.9-7.1 1.3-10.6 1.3-3.6 0-7.2-0.5-10.7-1.5-3.5-0.9-6.8-2.3-9.9-4.1l-106.2-61.2c-4.4-2.5-8.3-5.5-11.9-9-3.5-3.5-6.6-7.5-9.1-11.8-2.5-4.4-4.4-9-5.7-13.8-1.3-4.8-1.9-9.8-1.9-14.8v-120.5c0-5.5 0.7-11 2.1-16.3 1.4-5.4 3.5-10.5 6.2-15.3 2.7-4.8 6.1-9.2 9.9-13.1 3.9-4 8.2-7.4 13-10.2l98-58.6c4.1-2.4 8.5-4.3 13.1-5.6 4.6-1.3 9.3-2 14.1-2 4.7-0.1 9.5 0.5 14.1 1.7 4.6 1.2 9.1 3 13.2 5.4z"/>
	<path fill-rule="evenodd" class="s1" d="m961.1 76.8l117.3 66.8c3.1 1.8 6 4 8.6 6.5 2.5 2.5 4.7 5.4 6.5 8.5 1.9 3.1 3.2 6.5 4.2 10 0.9 3.4 1.4 7 1.4 10.6v139.5c0 4-0.5 8-1.6 11.9-1 3.8-2.6 7.5-4.6 10.9-2 3.5-4.5 6.6-7.3 9.4-2.9 2.8-6.1 5.2-9.6 7.2l-117.3 65.3c-3.3 1.8-6.9 3.3-10.6 4.2-3.7 0.9-7.4 1.4-11.2 1.4-3.8-0.1-7.6-0.6-11.3-1.6-3.7-1-7.2-2.5-10.5-4.4l-105.8-61.6c-4.2-2.5-8.1-5.5-11.5-8.9-3.5-3.5-6.4-7.4-8.9-11.6-2.4-4.2-4.3-8.8-5.5-13.5-1.3-4.7-1.9-9.5-1.9-14.4v-118.9c0-5.9 0.7-11.7 2.2-17.4 1.5-5.7 3.8-11.1 6.7-16.2 2.9-5.1 6.4-9.8 10.5-14 4.1-4.2 8.8-7.9 13.8-10.9l98.1-58.3c3.6-2.2 7.5-3.9 11.6-5 4-1.1 8.2-1.7 12.5-1.8 4.2 0 8.4 0.5 12.5 1.6 4.1 1 8 2.6 11.7 4.7z"/>
	<path fill-rule="evenodd" class="s2" d="m578.3 75l117.2 68.9c3 1.7 5.7 3.8 8.1 6.3 2.5 2.4 4.6 5.2 6.3 8.2 1.7 3 3 6.2 3.9 9.5 0.9 3.4 1.4 6.8 1.4 10.2l0.8 138.7c0 4.3-0.6 8.6-1.7 12.7-1.1 4.1-2.7 8.1-4.9 11.8-2.2 3.7-4.8 7.1-7.9 10.1-3 3-6.5 5.5-10.2 7.6l-115.1 64.1c-3.4 1.9-7 3.4-10.8 4.3-3.8 1-7.7 1.4-11.5 1.4-3.9 0-7.8-0.6-11.5-1.6-3.8-1-7.4-2.5-10.7-4.5l-105.9-61.6c-4.1-2.4-7.9-5.3-11.3-8.7-3.4-3.4-6.3-7.3-8.7-11.4-2.4-4.2-4.2-8.6-5.4-13.2-1.3-4.7-1.9-9.4-1.9-14.2v-123.1c0-5.3 0.7-10.7 2-15.8 1.4-5.2 3.4-10.2 6-14.9 2.6-4.6 5.8-8.9 9.4-12.8 3.7-3.9 7.9-7.3 12.5-10.1l99.3-61.4c3.7-2.3 7.8-4.1 12.1-5.3 4.2-1.3 8.6-1.9 13.1-2 4.4 0 8.8 0.5 13.1 1.7 4.3 1.1 8.4 2.8 12.3 5.1z"/>
	<path fill-rule="evenodd" class="s3" d="m198.8 78.1l114.4 66.6c3.3 1.9 6.4 4.2 9.1 7 2.7 2.7 5 5.7 6.9 9.1 2 3.3 3.4 6.9 4.4 10.6 1 3.7 1.5 7.5 1.5 11.3v136.4c0 4.3-0.6 8.5-1.7 12.6-1.1 4.1-2.7 8-4.9 11.7-2.1 3.6-4.7 7-7.7 9.9-3.1 3-6.5 5.6-10.1 7.7l-113.6 63.9c-3.7 2.1-7.6 3.7-11.7 4.7-4.1 1.1-8.3 1.6-12.6 1.6-4.2 0-8.4-0.6-12.5-1.7-4.1-1.1-8-2.7-11.7-4.8l-104.6-60.2c-4-2.3-7.7-5.2-10.9-8.4-3.3-3.3-6.2-7-8.5-11-2.3-4-4.1-8.3-5.3-12.8-1.2-4.5-1.8-9.1-1.8-13.7v-129.5c0-4.7 0.6-9.3 1.8-13.9 1.1-4.5 2.9-8.8 5.2-12.9 2.2-4.1 5-7.9 8.2-11.2 3.3-3.4 6.9-6.4 10.9-8.8l102.8-63.5c3.9-2.4 8.1-4.3 12.5-5.6 4.4-1.2 9-1.9 13.6-2 4.6 0 9.2 0.5 13.6 1.7 4.5 1.2 8.7 2.9 12.7 5.2z"/>
	<path fill-rule="evenodd" class="s4" d="m1323.7 143.2c58.8 0 106.5 47.7 106.5 106.5 0 58.8-47.7 106.5-106.5 106.5-58.8 0-106.5-47.7-106.5-106.5 0-58.8 47.7-106.5 106.5-106.5zm0 39.5c-8.8 0-17.5 1.8-25.6 5.1-8.1 3.4-15.5 8.3-21.7 14.5-6.2 6.3-11.2 13.6-14.5 21.8-3.4 8.1-5.1 16.8-5.1 25.6 0 36.9 30 66.9 66.9 66.9 8.8 0 17.5-1.7 25.6-5.1 8.2-3.4 15.5-8.3 21.7-14.5 6.3-6.2 11.2-13.6 14.6-21.7 3.3-8.1 5.1-16.9 5.1-25.6 0-37-30-67-67-67zm-283.8 65.3c0 47.2-8.9 61-26.8 80.6-17.8 19.7-41.5 27.6-71.1 27.6-27 0-48.7-9.6-67.6-26.3-20.9-18.4-36.1-47-36.1-78.9 0-31.4 11.8-58.5 32.5-78.7 18.2-17.6 45.4-29.2 73.3-29.2 33.8 0 68.9 16 90.5 47.6l-31.8 26.8c-13.4-25-32.9-33.5-60.8-34.3-30.8-0.8-64.8 28.6-62.2 67.8 1.4 21.9 11.6 59.6 60.9 66.6 25.9 3.6 55.4-24.1 55.4-39.1h-48.7v-37.5h92.5v7zm-520.3-94.7v112.2q0 26.7 1.5 34.6c1.7 8.5 4.8 14.4 11.1 19.5 6.4 5.2 13.8 6.6 24.9 6.6 11.2 0 14.9-1.7 20.6-6.6 5.7-4.8 9.2-9.4 10.3-16.5 1.2-7.1 3.1-18.8 3.1-35.2v-114.6h42.3v108.8q0 37.3-3.2 52.7-3.2 15.4-11.9 26-8.6 10.6-23 16.9-14.4 6.3-37.6 6.3-28.1 0-42.6-6.9-14.5-6.8-22.9-17.8-8.4-10.9-11-22.9-3.9-17.8-3.9-52.6v-110.5zm-422.7 200.6v-207.2h43.3v75.4h72v-75.4h43.4v207.2h-43.4v-90.6h-72v90.6z"/>
</svg>